<svg xmlns="http://www.w3.org/2000/svg" viewBox="0 0 32 32" fill="none">
  <circle cx="16" cy="16" r="16" fill="#C53030"/>
  <path d="M14 22L16 12L18 22" stroke="#D69E2E" stroke-width="1.5" stroke-linecap="round" stroke-linejoin="round"/>
  <path d="M12 22L16 10L20 22" stroke="#D69E2E" stroke-width="1" stroke-linecap="round" stroke-linejoin="round" opacity="0.6"/>
  <path d="M16 14C16 14 14.5 12 14.5 10.5C14.5 9 15.5 8 16 7.5C16.5 8 17.5 9 17.5 10.5C17.5 12 16 14 16 14Z" fill="white"/>
  <path d="M16 14C16 14 12.5 12.5 11.5 11C10.5 9.5 11 8 11.5 7.5C12.5 8.5 13 9.5 14 10.5C15 11.5 16 14 16 14Z" fill="white" opacity="0.85"/>
  <path d="M16 14C16 14 19.5 12.5 20.5 11C21.5 9.5 21 8 20.5 7.5C19.5 8.5 19 9.5 18 10.5C17 11.5 16 14 16 14Z" fill="white" opacity="0.85"/>
  <circle cx="16" cy="10" r="1.2" fill="#D69E2E"/>
  <line x1="10" y1="22" x2="22" y2="22" stroke="white" stroke-width="1" stroke-linecap="round" opacity="0.5"/>
  <line x1="11" y1="24" x2="21" y2="24" stroke="white" stroke-width="0.8" stroke-linecap="round" opacity="0.3"/>
</svg>
